<svg xmlns="http://www.w3.org/2000/svg" viewBox="0 0 92.649 107.357">
  <g fill="#040000" color="#000" font-family="sans-serif" font-weight="400" white-space="normal">
    <path d="M48.599 12.273l-4.47.008.093 61.94 4.47-.008z" overflow="visible" style="line-height:normal;font-variant-ligatures:normal;font-variant-position:normal;font-variant-caps:normal;font-variant-numeric:normal;font-variant-alternates:normal;font-feature-settings:normal;text-indent:0;text-align:start;text-decoration-line:none;text-decoration-style:solid;text-decoration-color:#000;text-transform:none;text-orientation:mixed;shape-padding:0;isolation:auto;mix-blend-mode:normal"/>
    <path d="M46.409 7.793l-11.832 20.48 3.873 2.229 9.85-17.11z" overflow="visible" style="line-height:normal;font-variant-ligatures:normal;font-variant-position:normal;font-variant-caps:normal;font-variant-numeric:normal;font-variant-alternates:normal;font-feature-settings:normal;text-indent:0;text-align:start;text-decoration-line:none;text-decoration-style:solid;text-decoration-color:#000;text-transform:none;text-orientation:mixed;shape-padding:0;isolation:auto;mix-blend-mode:normal"/>
    <path d="M46.409 7.793l-1.984 5.596 9.77 17.045 3.878-2.223zM29.624 38.898v4.471h33.4V38.9zM22.798 50.71v4.47h47.05v-4.47zM15.91 62.521v4.471h60.83v-4.47z" overflow="visible" style="line-height:normal;font-variant-ligatures:normal;font-variant-position:normal;font-variant-caps:normal;font-variant-numeric:normal;font-variant-alternates:normal;font-feature-settings:normal;text-indent:0;text-align:start;text-decoration-line:none;text-decoration-style:solid;text-decoration-color:#000;text-transform:none;text-orientation:mixed;shape-padding:0;isolation:auto;mix-blend-mode:normal"/>
    <path d="M46.324 1C21.897 1 2.044 20.851 2.044 45.28c0 24.427 19.853 44.28 44.28 44.28 24.428 0 44.282-19.853 44.282-44.28C90.606 20.85 70.752 1 46.324 1zm0 4.719c21.878 0 39.563 17.683 39.563 39.56 0 21.878-17.685 39.563-39.563 39.563-21.877 0-39.562-17.685-39.562-39.563 0-21.877 17.685-39.56 39.562-39.56z" overflow="visible" style="line-height:normal;font-variant-ligatures:normal;font-variant-position:normal;font-variant-caps:normal;font-variant-numeric:normal;font-variant-alternates:normal;font-feature-settings:normal;text-indent:0;text-align:start;text-decoration-line:none;text-decoration-style:solid;text-decoration-color:#000;text-transform:none;text-orientation:mixed;shape-padding:0;isolation:auto;mix-blend-mode:normal"/>
  </g>
  <g fill="#0b0000" stroke-width=".294" aria-label="NEVER GREEN" font-family="American Typewriter" font-size="15.672" font-weight="400" letter-spacing="0" style="line-height:1.25" word-spacing="0">
    <path d="M4.433 93.467l3.321 11.12V96.57q0-1.552-.012-1.71-.111-1.035-.618-1.035-.098 0-.296.06-.198.04-.296.04-.16 0-.284-.18-.111-.199-.111-.457 0-.717.555-.717.111 0 .16.02l.556.12q.37.08.692.08.32 0 .852-.12.185-.04.432-.1.025 0 .086-.02h.087q.53 0 .53.697 0 .676-.493.676-.087 0-.136-.02h-.123q-.37 0-.482.259-.111.258-.136 1.134l-.025 1.133-.024 2.03v5.31q0 1.373-.198 1.93-.185.557-.654.557-.605 0-1.025-1.392L3.556 94.024v9.25q0 1.492.63 1.492.098 0 .296-.04.198-.06.296-.06.395 0 .395.657 0 .696-.555.696h-.074q-.062-.02-.087-.02l-.506-.12q-.42-.099-.79-.099-.321 0-.827.1l-.605.119q-.025 0-.087.02h-.099q-.53 0-.53-.696 0-.617.394-.617.062 0 .334.04.136.06.26.06.629 0 .629-1.493v-1.392l.012-1.75V98.46l-.012-3.143q0-1.492-.642-1.492-.087 0-.247.04-.235.06-.346.06-.395 0-.395-.657 0-.697.53-.697.075 0 .199.02.617.1.95.1.185 0 .556-.06.37-.06.556-.06.382 0 .506.418zM12.047 95.297q0-1.472-.63-1.472-.173 0-.26.04-.197.06-.332.06-.161 0-.272-.18-.111-.199-.111-.477 0-.697.518-.697.013 0 .186.02 1.852.2 1.728.2h.124l2.975-.14q.087 0 .643-.06.197-.02.358-.02.642 0 .642.915 0 .16-.05 1.015-.037.637-.037 1.174 0 .696.025.974.05.577.05.856 0 .756-.445.756t-.445-1.055v-1.034q0-1.671-.432-1.97-.32-.218-1.654-.218-.877 0-1.038.06-.53.218-.53 1.193v1.333q-.013.278-.013.398v.258q0 .796.222.915.087.04.297.04h.506q.778 0 .778-.855 0-.239-.037-.617t-.037-.676q0-.796.444-.796.445 0 .445.855 0 .16-.087 1.234-.074.915-.074 1.611 0 .398.05 1.412.012.16.061.697.037.437.037.696 0 .716-.444.716-.432 0-.432-.835 0-.22.024-.637.038-.418.038-.637 0-.855-.704-.855h-.556q-.358 0-.444.199-.075.199-.075.855v1.234q0 .318.013.855.012.656.012.875.012.796.198.995.136.14.642.14h1.679q.729 0 1-.339.272-.358.272-1.313 0-.298-.025-.875-.012-.597-.012-.895 0-.896.444-.896.47 0 .47.916 0 .358-.025 1.094-.025.736-.025 1.094 0 .278.013.835.024.537.024.816 0 .935-.568.935-.136 0-.432-.04-.148-.02-.543-.02.086 0-.963-.04-1.05-.04-1.815-.04-1.161 0-2.272.12-.05 0-.111.02h-.075q-.518 0-.518-.717 0-.636.383-.636.061 0 .333.04.136.06.26.06.629 0 .629-1.493zM21.528 95.774l1.74 8.494 1.655-8.315q.185-.955.185-1.353 0-.755-.493-.755-.087 0-.272.06-.185.039-.272.039-.481 0-.481-.696 0-.677.469-.677.26 0 .778.12.53.119.802.119.445 0 1.1-.179.21-.06.394-.06.457 0 .457.697 0 .676-.457.676-.012 0-.049-.02l-.284-.04h-.062q-.21 0-.345.338-.124.319-.358 1.413l-2.025 9.568q-.21.975-.778.975-.593 0-.803-.975l-2.21-10.006q-.16-.736-.26-.935-.172-.338-.543-.338-.074 0-.234.02-.16.02-.235.02-.482 0-.482-.696 0-.717.494-.717.149 0 .334.06.691.219 1.222.219.309 0 .914-.12.605-.139.901-.139.457 0 .457.657 0 .716-.47.716-.024 0-.11-.02h-.124q-.074-.02-.21-.02-.543 0-.543.557 0 .279.062.597zM29.362 95.297q0-1.472-.63-1.472-.172 0-.259.04-.197.06-.333.06-.16 0-.272-.18-.11-.199-.11-.477 0-.697.518-.697.012 0 .185.02 1.852.2 1.729.2h.123l2.976-.14q.086 0 .642-.06.198-.02.358-.02.642 0 .642.915 0 .16-.05 1.015-.036.637-.036 1.174 0 .696.024.974.05.577.05.856 0 .756-.445.756-.444 0-.444-1.055v-1.034q0-1.671-.432-1.97-.321-.218-1.655-.218-.877 0-1.037.06-.531.218-.531 1.193v1.333q-.013.278-.013.398v.258q0 .796.223.915.086.04.296.04h.506q.778 0 .778-.855 0-.239-.037-.617t-.037-.676q0-.796.445-.796.444 0 .444.855 0 .16-.086 1.234-.074.915-.074 1.611 0 .398.05 1.412.011.16.06.697.038.437.038.696 0 .716-.445.716-.432 0-.432-.835 0-.22.025-.637.037-.418.037-.637 0-.855-.704-.855h-.556q-.358 0-.444.199-.074.199-.074.855v1.234q0 .318.012.855.013.656.013.875.012.796.197.995.136.14.642.14h1.68q.728 0 1-.339.271-.358.271-1.313 0-.298-.024-.875-.013-.597-.013-.895 0-.896.445-.896.469 0 .469.916 0 .358-.025 1.094-.024.736-.024 1.094 0 .278.012.835.025.537.025.816 0 .935-.568.935-.136 0-.432-.04-.149-.02-.544-.02.087 0-.963-.04t-1.815-.04q-1.16 0-2.272.12-.05 0-.111.02h-.074q-.519 0-.519-.717 0-.636.383-.636.062 0 .334.04.135.06.259.06.63 0 .63-1.493zM42.473 98.599q-.358.278-.913.477.728.22 1 .876.284.656.284 2.168v.915q-.013.08-.013.239 0 1.432.568 1.432.58 0 .58-1.71v-.598l-.012-.497v-.278q0-.577.05-.796.098-.338.382-.338.445 0 .445.835l-.012.438-.013.417q-.012.418-.012.538v.497q.012.12.012.358 0 1.154-.407 1.81-.395.637-1.111.637-1.457 0-1.457-2.367v-.597l.012-.677v-.437q0-1.333-.321-1.75-.309-.438-1.297-.438H39.09q-.395 0-.395.775v1.532q0 1.472.025 1.671.11.995.617.995.173 0 .26-.04.21-.06.32-.06.395 0 .395.677 0 .716-.53.716l-.186-.04-.667-.14q-.382-.079-.679-.079-.37 0-.864.1l-.593.119q-.197.04-.185.04-.53 0-.53-.716 0-.637.382-.637.062 0 .333.04.136.06.26.06.63 0 .63-1.493v-7.976q0-1.492-.63-1.492-.1 0-.297.06-.197.04-.296.04-.16 0-.272-.18-.11-.199-.11-.458 0-.696.543-.696.049 0 .172.02l.63.1q.247.04.617.04.383 0 .852-.04l.939-.08q.47-.04.864-.04 2.717 0 2.717 3.342 0 1.97-.939 2.686zm-3.42-.18h1.16q1.038 0 1.557-.477.63-.576.63-1.93 0-2.267-1.927-2.267-1.025 0-1.395.259-.358.238-.37.974l-.013.637v2.288q0 .338.074.437.074.08.284.08zM52.061 92.213q1.235 0 2.235 1.492-.024-.278-.024-.318-.025-.398-.025-.438 0-.656.407-.656.445 0 .445.855 0 .279-.012.418l-.087.955q-.037.418-.037.895 0 .378.05 1.611v.18q0 .895-.457.895-.433 0-.433-.975v-.597q0-1.373-.568-2.168-.555-.796-1.506-.796-1.198 0-1.877 1.492t-.679 4.098q0 2.765.692 4.317.703 1.551 1.938 1.551.95 0 1.47-.895.518-.895.518-2.546 0-.677-.148-.935-.136-.279-.494-.279-.099 0-.284.02-.185.02-.284.02-.593 0-.593-.676 0-.696.507-.696.16 0 .358.04.778.158 1.247.158.605 0 1.284-.179.148-.04.333-.04.494 0 .494.657 0 .279-.136.478-.123.198-.296.198-.148 0-.222-.02-.025 0-.087-.02h-.098q-.544 0-.544 1.95v1.591q0 .518.025.935.025.418.025.657 0 .815-.445.815-.432 0-.432-.696l.025-.477q.012-.18.024-.617-.284.617-.444.856-.716 1.034-1.988 1.034-1.593 0-2.568-1.91-.976-1.91-.976-4.993 0-3.302.988-5.271 1-1.97 2.68-1.97zM63.334 98.599q-.358.278-.914.477.729.22 1 .876.284.656.284 2.168v.915q-.012.08-.012.239 0 1.432.568 1.432.58 0 .58-1.71v-.598l-.012-.497v-.278q0-.577.05-.796.098-.338.382-.338.445 0 .445.835l-.013.438-.012.417q-.013.418-.013.538v.497q.013.12.013.358 0 1.154-.408 1.81-.395.637-1.111.637-1.457 0-1.457-2.367v-.597l.012-.677v-.437q0-1.333-.32-1.75-.31-.438-1.297-.438H59.95q-.396 0-.396.775v1.532q0 1.472.025 1.671.111.995.617.995.173 0 .26-.04.21-.06.32-.06.396 0 .396.677 0 .716-.531.716l-.185-.04-.667-.14q-.383-.079-.68-.079-.37 0-.863.1l-.593.119q-.198.04-.185.04-.531 0-.531-.716 0-.637.383-.637.061 0 .333.04.136.06.26.06.629 0 .629-1.493v-7.976q0-1.492-.63-1.492-.099 0-.296.06-.198.04-.296.04-.161 0-.272-.18-.111-.199-.111-.458 0-.696.543-.696.05 0 .173.02l.63.1q.247.04.617.04.383 0 .852-.04l.938-.08q.47-.04.865-.04 2.716 0 2.716 3.342 0 1.97-.938 2.686zm-3.42-.18h1.16q1.037 0 1.556-.477.63-.576.63-1.93 0-2.267-1.926-2.267-1.025 0-1.396.259-.358.238-.37.974l-.013.637v2.288q0 .338.075.437.074.08.284.08zM67.538 95.297q0-1.472-.63-1.472-.172 0-.259.04-.197.06-.333.06-.16 0-.272-.18-.11-.199-.11-.477 0-.697.518-.697.012 0 .185.02 1.852.2 1.729.2h.123l2.976-.14q.086 0 .642-.06.197-.02.358-.02.642 0 .642.915 0 .16-.05 1.015-.036.637-.036 1.174 0 .696.024.974.05.577.05.856 0 .756-.445.756-.444 0-.444-1.055v-1.034q0-1.671-.432-1.97-.321-.218-1.655-.218-.877 0-1.037.06-.531.218-.531 1.193v1.333q-.012.278-.012.398v.258q0 .796.222.915.086.04.296.04h.506q.778 0 .778-.855 0-.239-.037-.617t-.037-.676q0-.796.445-.796.444 0 .444.855 0 .16-.086 1.234-.074.915-.074 1.611 0 .398.05 1.412.012.16.06.697.038.437.038.696 0 .716-.445.716-.432 0-.432-.835 0-.22.025-.637.037-.418.037-.637 0-.855-.704-.855h-.555q-.359 0-.445.199-.074.199-.074.855v1.234q0 .318.012.855.013.656.013.875.012.796.197.995.136.14.642.14h1.68q.728 0 1-.339.271-.358.271-1.313 0-.298-.024-.875-.013-.597-.013-.895 0-.896.445-.896.469 0 .469.916 0 .358-.025 1.094-.024.736-.024 1.094 0 .278.012.835.025.537.025.816 0 .935-.568.935-.136 0-.432-.04-.149-.02-.544-.02.087 0-.963-.04t-1.815-.04q-1.16 0-2.272.12-.05 0-.111.02h-.074q-.519 0-.519-.717 0-.636.383-.636.062 0 .333.04.136.06.26.06.63 0 .63-1.493zM75.858 95.297q0-1.472-.63-1.472-.172 0-.259.04-.197.06-.333.06-.16 0-.272-.18-.11-.199-.11-.477 0-.697.518-.697.012 0 .185.02 1.852.2 1.729.2h.123l2.976-.14q.086 0 .642-.06.198-.02.358-.02.642 0 .642.915 0 .16-.05 1.015-.036.637-.036 1.174 0 .696.024.974.05.577.05.856 0 .756-.445.756-.444 0-.444-1.055v-1.034q0-1.671-.432-1.97-.321-.218-1.655-.218-.877 0-1.037.06-.531.218-.531 1.193v1.333q-.012.278-.012.398v.258q0 .796.222.915.086.04.296.04h.506q.778 0 .778-.855 0-.239-.037-.617t-.037-.676q0-.796.445-.796.444 0 .444.855 0 .16-.086 1.234-.074.915-.074 1.611 0 .398.05 1.412.012.16.06.697.038.437.038.696 0 .716-.445.716-.432 0-.432-.835 0-.22.025-.637.037-.418.037-.637 0-.855-.704-.855h-.555q-.359 0-.445.199-.074.199-.074.855v1.234q0 .318.012.855.013.656.013.875.012.796.197.995.136.14.642.14h1.68q.728 0 1-.339.271-.358.271-1.313 0-.298-.024-.875-.013-.597-.013-.895 0-.896.445-.896.47 0 .47.916 0 .358-.026 1.094-.024.736-.024 1.094 0 .278.012.835.025.537.025.816 0 .935-.568.935-.136 0-.432-.04-.149-.02-.544-.02.087 0-.963-.04t-1.815-.04q-1.16 0-2.272.12-.05 0-.11.02h-.075q-.519 0-.519-.717 0-.636.383-.636.062 0 .334.04.135.06.259.06.63 0 .63-1.493zM85.994 93.467l3.321 11.12V96.57q0-1.552-.012-1.71-.111-1.035-.618-1.035-.098 0-.296.06-.198.04-.296.04-.16 0-.284-.18-.111-.199-.111-.457 0-.717.555-.717.111 0 .16.02l.556.12q.37.08.692.08.32 0 .852-.12.185-.04.432-.1.025 0 .086-.02h.087q.53 0 .53.697 0 .676-.493.676-.087 0-.136-.02h-.123q-.37 0-.482.259-.111.258-.136 1.134l-.024 1.133-.025 2.03v5.31q0 1.373-.198 1.93-.185.557-.654.557-.605 0-1.025-1.392l-3.235-10.842v9.25q0 1.492.63 1.492.098 0 .296-.04.198-.059.296-.059.396 0 .396.656 0 .697-.556.697h-.074q-.062-.02-.087-.02l-.506-.12q-.42-.1-.79-.1-.321 0-.827.1l-.605.12q-.025 0-.087.02h-.099q-.53 0-.53-.697 0-.616.395-.616.061 0 .333.04.136.06.26.06.629 0 .629-1.493v-1.392l.012-1.75V98.46l-.012-3.143q0-1.492-.642-1.492-.087 0-.247.04-.235.059-.346.059-.395 0-.395-.656 0-.697.531-.697.074 0 .198.02.617.1.95.1.186 0 .556-.06.37-.06.556-.06.382 0 .506.418z" style="-inkscape-font-specification:'American Typewriter, Normal';font-variant-ligatures:normal;font-variant-caps:normal;font-variant-numeric:normal;font-feature-settings:normal;text-align:start"/>
  </g>
</svg>
